<mxfile host="app.diagrams.net" agent="Mozilla/5.0 (Windows NT 10.0; Win64; x64) AppleWebKit/537.36 (KHTML, like Gecko) Chrome/127.0.0.0 Safari/537.36" version="24.7.6" pages="2">
  <diagram id="tK835I-MWeZpVKBTCW6J" name="Page-1">
    <mxGraphModel dx="2049" dy="2298" grid="0" gridSize="10" guides="1" tooltips="1" connect="1" arrows="1" fold="1" page="1" pageScale="1" pageWidth="827" pageHeight="1169" math="0" shadow="0">
      <root>
        <mxCell id="0" />
        <mxCell id="1" parent="0" />
        <mxCell id="OLyimAbUq10eKZGSfrUp-50" value="" style="rounded=0;whiteSpace=wrap;html=1;" parent="1" vertex="1">
          <mxGeometry x="363" y="-317" width="1320" height="1023" as="geometry" />
        </mxCell>
        <mxCell id="OLyimAbUq10eKZGSfrUp-1" value="" style="rounded=0;whiteSpace=wrap;html=1;fillColor=#ffe6cc;strokeColor=#d79b00;dashed=1;verticalAlign=top;fontStyle=1;fontSize=15;" parent="1" vertex="1">
          <mxGeometry x="450" y="40" width="1190" height="620" as="geometry" />
        </mxCell>
        <mxCell id="OLyimAbUq10eKZGSfrUp-2" value="" style="dashed=0;html=1;shape=mxgraph.aws3.cloud;fillColor=#F58536;gradientColor=none;dashed=0;strokeColor=#FFB570;aspect=fixed;" parent="1" vertex="1">
          <mxGeometry x="440" y="20" width="50" height="34.61" as="geometry" />
        </mxCell>
        <mxCell id="OLyimAbUq10eKZGSfrUp-5" value="Conta Corrente" style="whiteSpace=wrap;html=1;dashed=1;fontSize=14;align=center;verticalAlign=top;spacingLeft=0;spacingTop=6;" parent="1" vertex="1">
          <mxGeometry x="980" y="110" width="630" height="480" as="geometry" />
        </mxCell>
        <mxCell id="OLyimAbUq10eKZGSfrUp-6" value="" style="dashed=0;html=1;shape=mxgraph.aws3.virtual_private_cloud;fillColor=#F58536;gradientColor=none;dashed=0;strokeColor=#FFB570;" parent="1" vertex="1">
          <mxGeometry x="970" y="100" width="42" height="26" as="geometry" />
        </mxCell>
        <mxCell id="OLyimAbUq10eKZGSfrUp-10" style="edgeStyle=orthogonalEdgeStyle;rounded=0;orthogonalLoop=1;jettySize=auto;html=1;" parent="1" source="OLyimAbUq10eKZGSfrUp-8" target="OLyimAbUq10eKZGSfrUp-16" edge="1">
          <mxGeometry relative="1" as="geometry">
            <mxPoint x="1350" y="260" as="targetPoint" />
            <Array as="points">
              <mxPoint x="1190" y="320" />
              <mxPoint x="1190" y="230" />
            </Array>
          </mxGeometry>
        </mxCell>
        <mxCell id="OLyimAbUq10eKZGSfrUp-24" style="edgeStyle=orthogonalEdgeStyle;rounded=0;orthogonalLoop=1;jettySize=auto;html=1;" parent="1" source="OLyimAbUq10eKZGSfrUp-8" target="OLyimAbUq10eKZGSfrUp-15" edge="1">
          <mxGeometry relative="1" as="geometry">
            <Array as="points">
              <mxPoint x="1190" y="320" />
              <mxPoint x="1190" y="480" />
            </Array>
          </mxGeometry>
        </mxCell>
        <mxCell id="OLyimAbUq10eKZGSfrUp-8" value="Amazon API Gateway" style="outlineConnect=0;fontColor=#232F3E;gradientColor=none;strokeColor=#ffffff;fillColor=#232F3E;dashed=0;verticalLabelPosition=middle;verticalAlign=bottom;align=center;html=1;whiteSpace=wrap;fontSize=10;fontStyle=1;spacing=3;shape=mxgraph.aws4.productIcon;prIcon=mxgraph.aws4.api_gateway;" parent="1" vertex="1">
          <mxGeometry x="1060" y="280" width="80" height="110" as="geometry" />
        </mxCell>
        <mxCell id="OLyimAbUq10eKZGSfrUp-13" value="Availability zone A" style="outlineConnect=0;gradientColor=none;html=1;whiteSpace=wrap;fontSize=12;fontStyle=0;shape=mxgraph.aws4.group;grIcon=mxgraph.aws4.group_availability_zone;strokeColor=#545B64;fillColor=none;verticalAlign=top;align=left;spacingLeft=30;fontColor=#545B64;dashed=1;" parent="1" vertex="1">
          <mxGeometry x="1220" y="160" width="360" height="195" as="geometry" />
        </mxCell>
        <mxCell id="OLyimAbUq10eKZGSfrUp-14" value="Availability zone B" style="outlineConnect=0;gradientColor=none;html=1;whiteSpace=wrap;fontSize=12;fontStyle=0;shape=mxgraph.aws4.group;grIcon=mxgraph.aws4.group_availability_zone;strokeColor=#545B64;fillColor=none;verticalAlign=top;align=left;spacingLeft=30;fontColor=#545B64;dashed=1;" parent="1" vertex="1">
          <mxGeometry x="1220" y="375" width="360" height="195" as="geometry" />
        </mxCell>
        <mxCell id="OLyimAbUq10eKZGSfrUp-23" style="edgeStyle=orthogonalEdgeStyle;rounded=0;orthogonalLoop=1;jettySize=auto;html=1;" parent="1" source="OLyimAbUq10eKZGSfrUp-15" target="OLyimAbUq10eKZGSfrUp-18" edge="1">
          <mxGeometry relative="1" as="geometry" />
        </mxCell>
        <mxCell id="OLyimAbUq10eKZGSfrUp-49" style="edgeStyle=orthogonalEdgeStyle;rounded=0;orthogonalLoop=1;jettySize=auto;html=1;" parent="1" source="OLyimAbUq10eKZGSfrUp-15" target="OLyimAbUq10eKZGSfrUp-48" edge="1">
          <mxGeometry relative="1" as="geometry">
            <Array as="points">
              <mxPoint x="1429" y="485" />
              <mxPoint x="1429" y="435" />
            </Array>
          </mxGeometry>
        </mxCell>
        <mxCell id="OLyimAbUq10eKZGSfrUp-15" value="Amazon EC2" style="outlineConnect=0;fontColor=#232F3E;gradientColor=none;strokeColor=#ffffff;fillColor=#232F3E;dashed=0;verticalLabelPosition=middle;verticalAlign=bottom;align=center;html=1;whiteSpace=wrap;fontSize=10;fontStyle=1;spacing=3;shape=mxgraph.aws4.productIcon;prIcon=mxgraph.aws4.ec2;" parent="1" vertex="1">
          <mxGeometry x="1290" y="435" width="80" height="100" as="geometry" />
        </mxCell>
        <mxCell id="OLyimAbUq10eKZGSfrUp-22" style="edgeStyle=orthogonalEdgeStyle;rounded=0;orthogonalLoop=1;jettySize=auto;html=1;" parent="1" source="OLyimAbUq10eKZGSfrUp-16" target="OLyimAbUq10eKZGSfrUp-21" edge="1">
          <mxGeometry relative="1" as="geometry">
            <Array as="points">
              <mxPoint x="1430" y="235" />
              <mxPoint x="1430" y="302" />
            </Array>
          </mxGeometry>
        </mxCell>
        <mxCell id="OLyimAbUq10eKZGSfrUp-47" style="edgeStyle=orthogonalEdgeStyle;rounded=0;orthogonalLoop=1;jettySize=auto;html=1;" parent="1" source="OLyimAbUq10eKZGSfrUp-16" target="OLyimAbUq10eKZGSfrUp-46" edge="1">
          <mxGeometry relative="1" as="geometry">
            <Array as="points">
              <mxPoint x="1429" y="235" />
              <mxPoint x="1429" y="205" />
            </Array>
          </mxGeometry>
        </mxCell>
        <mxCell id="OLyimAbUq10eKZGSfrUp-16" value="Amazon EC2" style="outlineConnect=0;fontColor=#232F3E;gradientColor=none;strokeColor=#ffffff;fillColor=#232F3E;dashed=0;verticalLabelPosition=middle;verticalAlign=bottom;align=center;html=1;whiteSpace=wrap;fontSize=10;fontStyle=1;spacing=3;shape=mxgraph.aws4.productIcon;prIcon=mxgraph.aws4.ec2;" parent="1" vertex="1">
          <mxGeometry x="1290" y="196" width="80" height="100" as="geometry" />
        </mxCell>
        <mxCell id="OLyimAbUq10eKZGSfrUp-18" value="DynamoDB" style="outlineConnect=0;dashed=0;verticalLabelPosition=bottom;verticalAlign=top;align=center;html=1;shape=mxgraph.aws3.rds;fillColor=#2E73B8;gradientColor=none;fontSize=12;" parent="1" vertex="1">
          <mxGeometry x="1487.5" y="486" width="52" height="49" as="geometry" />
        </mxCell>
        <mxCell id="OLyimAbUq10eKZGSfrUp-21" value="DynamoDB" style="outlineConnect=0;dashed=0;verticalLabelPosition=bottom;verticalAlign=top;align=center;html=1;shape=mxgraph.aws3.rds;fillColor=#2E73B8;gradientColor=none;fontSize=12;" parent="1" vertex="1">
          <mxGeometry x="1490" y="277.5" width="52" height="49" as="geometry" />
        </mxCell>
        <mxCell id="OLyimAbUq10eKZGSfrUp-26" value="App IOS" style="whiteSpace=wrap;html=1;dashed=1;fontSize=14;align=center;verticalAlign=top;spacingLeft=0;spacingTop=6;" parent="1" vertex="1">
          <mxGeometry x="510" y="115" width="450" height="205" as="geometry" />
        </mxCell>
        <mxCell id="OLyimAbUq10eKZGSfrUp-27" value="" style="dashed=0;html=1;shape=mxgraph.aws3.virtual_private_cloud;fillColor=#F58536;gradientColor=none;dashed=0;strokeColor=#FFB570;" parent="1" vertex="1">
          <mxGeometry x="500" y="100" width="42" height="26" as="geometry" />
        </mxCell>
        <mxCell id="OLyimAbUq10eKZGSfrUp-28" value="App Android" style="whiteSpace=wrap;html=1;dashed=1;fontSize=14;align=center;verticalAlign=top;spacingLeft=0;spacingTop=6;" parent="1" vertex="1">
          <mxGeometry x="510" y="385" width="455" height="205" as="geometry" />
        </mxCell>
        <mxCell id="OLyimAbUq10eKZGSfrUp-29" value="" style="dashed=0;html=1;shape=mxgraph.aws3.virtual_private_cloud;fillColor=#F58536;gradientColor=none;dashed=0;strokeColor=#FFB570;" parent="1" vertex="1">
          <mxGeometry x="503.5" y="370" width="42" height="26" as="geometry" />
        </mxCell>
        <mxCell id="OLyimAbUq10eKZGSfrUp-45" style="edgeStyle=orthogonalEdgeStyle;rounded=0;orthogonalLoop=1;jettySize=auto;html=1;" parent="1" source="OLyimAbUq10eKZGSfrUp-33" target="OLyimAbUq10eKZGSfrUp-34" edge="1">
          <mxGeometry relative="1" as="geometry" />
        </mxCell>
        <mxCell id="OLyimAbUq10eKZGSfrUp-33" value="" style="aspect=fixed;pointerEvents=1;shadow=0;dashed=0;html=1;strokeColor=none;labelPosition=center;verticalLabelPosition=bottom;verticalAlign=top;align=center;fillColor=#00188D;shape=mxgraph.mscae.enterprise.android_phone" parent="1" vertex="1">
          <mxGeometry x="385.6" y="457.66999999999996" width="41.2" height="68.67" as="geometry" />
        </mxCell>
        <mxCell id="OLyimAbUq10eKZGSfrUp-36" style="edgeStyle=orthogonalEdgeStyle;rounded=0;orthogonalLoop=1;jettySize=auto;html=1;" parent="1" source="OLyimAbUq10eKZGSfrUp-34" target="OLyimAbUq10eKZGSfrUp-35" edge="1">
          <mxGeometry relative="1" as="geometry" />
        </mxCell>
        <mxCell id="OLyimAbUq10eKZGSfrUp-34" value="Amazon API Gateway" style="outlineConnect=0;fontColor=#232F3E;gradientColor=none;strokeColor=#ffffff;fillColor=#232F3E;dashed=0;verticalLabelPosition=middle;verticalAlign=bottom;align=center;html=1;whiteSpace=wrap;fontSize=10;fontStyle=1;spacing=3;shape=mxgraph.aws4.productIcon;prIcon=mxgraph.aws4.api_gateway;" parent="1" vertex="1">
          <mxGeometry x="590" y="437" width="80" height="110" as="geometry" />
        </mxCell>
        <mxCell id="OLyimAbUq10eKZGSfrUp-37" style="edgeStyle=orthogonalEdgeStyle;rounded=0;orthogonalLoop=1;jettySize=auto;html=1;" parent="1" source="OLyimAbUq10eKZGSfrUp-35" target="OLyimAbUq10eKZGSfrUp-8" edge="1">
          <mxGeometry relative="1" as="geometry">
            <Array as="points">
              <mxPoint x="940" y="492" />
              <mxPoint x="940" y="335" />
            </Array>
          </mxGeometry>
        </mxCell>
        <mxCell id="OLyimAbUq10eKZGSfrUp-35" value="Backend" style="outlineConnect=0;dashed=0;verticalLabelPosition=bottom;verticalAlign=top;align=center;html=1;shape=mxgraph.aws3.lambda_function;fillColor=#F58534;gradientColor=none;" parent="1" vertex="1">
          <mxGeometry x="800" y="456.5" width="69" height="72" as="geometry" />
        </mxCell>
        <mxCell id="OLyimAbUq10eKZGSfrUp-44" style="edgeStyle=orthogonalEdgeStyle;rounded=0;orthogonalLoop=1;jettySize=auto;html=1;" parent="1" source="OLyimAbUq10eKZGSfrUp-39" target="OLyimAbUq10eKZGSfrUp-40" edge="1">
          <mxGeometry relative="1" as="geometry" />
        </mxCell>
        <mxCell id="OLyimAbUq10eKZGSfrUp-39" value="" style="dashed=0;outlineConnect=0;html=1;align=center;labelPosition=center;verticalLabelPosition=bottom;verticalAlign=top;shape=mxgraph.webicons.apple;fillColor=#807E7E;gradientColor=#1B1C1C" parent="1" vertex="1">
          <mxGeometry x="380" y="191" width="52.4" height="53" as="geometry" />
        </mxCell>
        <mxCell id="OLyimAbUq10eKZGSfrUp-43" style="edgeStyle=orthogonalEdgeStyle;rounded=0;orthogonalLoop=1;jettySize=auto;html=1;" parent="1" source="OLyimAbUq10eKZGSfrUp-40" target="OLyimAbUq10eKZGSfrUp-41" edge="1">
          <mxGeometry relative="1" as="geometry" />
        </mxCell>
        <mxCell id="OLyimAbUq10eKZGSfrUp-40" value="Amazon API Gateway" style="outlineConnect=0;fontColor=#232F3E;gradientColor=none;strokeColor=#ffffff;fillColor=#232F3E;dashed=0;verticalLabelPosition=middle;verticalAlign=bottom;align=center;html=1;whiteSpace=wrap;fontSize=10;fontStyle=1;spacing=3;shape=mxgraph.aws4.productIcon;prIcon=mxgraph.aws4.api_gateway;" parent="1" vertex="1">
          <mxGeometry x="590" y="162.5" width="80" height="110" as="geometry" />
        </mxCell>
        <mxCell id="OLyimAbUq10eKZGSfrUp-42" style="edgeStyle=orthogonalEdgeStyle;rounded=0;orthogonalLoop=1;jettySize=auto;html=1;" parent="1" source="OLyimAbUq10eKZGSfrUp-41" target="OLyimAbUq10eKZGSfrUp-8" edge="1">
          <mxGeometry relative="1" as="geometry">
            <Array as="points">
              <mxPoint x="940" y="217" />
              <mxPoint x="940" y="335" />
            </Array>
          </mxGeometry>
        </mxCell>
        <mxCell id="OLyimAbUq10eKZGSfrUp-41" value="Backend" style="outlineConnect=0;dashed=0;verticalLabelPosition=bottom;verticalAlign=top;align=center;html=1;shape=mxgraph.aws3.lambda_function;fillColor=#F58534;gradientColor=none;" parent="1" vertex="1">
          <mxGeometry x="800" y="181" width="69" height="72" as="geometry" />
        </mxCell>
        <mxCell id="OLyimAbUq10eKZGSfrUp-46" value="Amazon S3" style="outlineConnect=0;fontColor=#232F3E;gradientColor=none;strokeColor=#ffffff;fillColor=#232F3E;dashed=0;verticalLabelPosition=middle;verticalAlign=bottom;align=center;html=1;whiteSpace=wrap;fontSize=10;fontStyle=1;spacing=3;shape=mxgraph.aws4.productIcon;prIcon=mxgraph.aws4.s3;" parent="1" vertex="1">
          <mxGeometry x="1487.5" y="180" width="57" height="84" as="geometry" />
        </mxCell>
        <mxCell id="OLyimAbUq10eKZGSfrUp-48" value="Amazon S3" style="outlineConnect=0;fontColor=#232F3E;gradientColor=none;strokeColor=#ffffff;fillColor=#232F3E;dashed=0;verticalLabelPosition=middle;verticalAlign=bottom;align=center;html=1;whiteSpace=wrap;fontSize=10;fontStyle=1;spacing=3;shape=mxgraph.aws4.productIcon;prIcon=mxgraph.aws4.s3;" parent="1" vertex="1">
          <mxGeometry x="1487.5" y="401" width="57" height="84" as="geometry" />
        </mxCell>
        <mxCell id="OLyimAbUq10eKZGSfrUp-51" value="&lt;div style=&quot;text-align: left ; font-size: 15px&quot;&gt;&lt;span style=&quot;font-weight: normal&quot;&gt;&lt;font style=&quot;font-size: 15px&quot;&gt;Você recebeu a missão de projetar a arquitetura do PIX dentro do Itaú e recebeu os seguintes requisitos funcionais e não funcionais:&lt;/font&gt;&lt;/span&gt;&lt;/div&gt;&lt;div style=&quot;text-align: left ; font-size: 15px&quot;&gt;&lt;ul&gt;&lt;li&gt;&lt;span style=&quot;font-weight: 400&quot;&gt;O sistema deverá ser capaz de receber a ordem de transferência dos Apps e efetivar o débito(-) na conta do cliente solicitante antes de creditar (+) a conta do cliente destinatário.&lt;/span&gt;&lt;/li&gt;&lt;li&gt;&lt;span style=&quot;font-weight: 400&quot;&gt;O sistema deverá guardar um histórico de todas as transações por 5 anos.&lt;/span&gt;&lt;/li&gt;&lt;li&gt;&lt;span style=&quot;font-weight: normal&quot;&gt;&lt;font style=&quot;font-size: 15px&quot;&gt;Ser compatível com IOS e Android&lt;/font&gt;&lt;/span&gt;&lt;/li&gt;&lt;li&gt;&lt;span style=&quot;font-weight: normal&quot;&gt;&lt;font style=&quot;font-size: 15px&quot;&gt;Inicio com 100 transações diárias, com perspectiva de crescimento para 20 milhões por dia em até 1 ano&lt;/font&gt;&lt;/span&gt;&lt;/li&gt;&lt;li&gt;&lt;span style=&quot;font-weight: normal&quot;&gt;&lt;font style=&quot;font-size: 15px&quot;&gt;Ter ao menos 2 AZs&lt;/font&gt;&lt;/span&gt;&lt;/li&gt;&lt;li&gt;&lt;span style=&quot;font-weight: normal&quot;&gt;Ter log de metricas&lt;/span&gt;&lt;br&gt;&lt;/li&gt;&lt;/ul&gt;&lt;span style=&quot;font-weight: normal&quot;&gt;&lt;font style=&quot;font-size: 15px&quot;&gt;Juntamente com os requisitos, você recebeu a proposta de arquitetura inicial. Faça as correções necessárias para que a solução possa atender os requisitos de forma efetiva, levando em consideração o custo benefício da solução.&lt;/font&gt;&lt;/span&gt;&lt;/div&gt;&lt;div style=&quot;text-align: left ; font-size: 17px&quot;&gt;&lt;font style=&quot;font-size: 17px&quot;&gt;&lt;br&gt;&lt;/font&gt;&lt;/div&gt;&lt;div style=&quot;text-align: left&quot;&gt;&lt;font style=&quot;font-size: 14px&quot;&gt;Obs:&lt;/font&gt;&lt;/div&gt;&lt;div style=&quot;text-align: left&quot;&gt;&lt;font style=&quot;font-size: 13px&quot;&gt;Requisitos de segurança não são obrigatórios&lt;/font&gt;&lt;span&gt;, mas podem haver perguntas relacionadas.&lt;/span&gt;&lt;/div&gt;&lt;div style=&quot;text-align: left&quot;&gt;&lt;font style=&quot;font-size: 13px&quot;&gt;&lt;div&gt;&lt;/div&gt;&lt;/font&gt;&lt;/div&gt;&lt;div style=&quot;text-align: left&quot;&gt;&lt;font style=&quot;font-size: 13px&quot;&gt;FronEnd e Apps não fazem parte do escopo do desenho.&lt;/font&gt;&lt;/div&gt;&lt;div style=&quot;text-align: left&quot;&gt;&lt;p style=&quot;margin-top: 0pt ; margin-bottom: 0pt ; margin-left: 0in ; direction: ltr ; unicode-bidi: embed ; word-break: normal&quot;&gt;&lt;span&gt;&lt;font style=&quot;font-size: 13px&quot;&gt;Não existe resposta certa ou errada, o objetivo do case é avaliar a linha de raciocínio dos candidatos.&lt;/font&gt;&lt;/span&gt;&lt;/p&gt;&lt;/div&gt;&lt;div style=&quot;text-align: left&quot;&gt;&lt;br&gt;&lt;/div&gt;" style="text;html=1;strokeColor=none;fillColor=none;align=center;verticalAlign=middle;whiteSpace=wrap;rounded=0;fontStyle=1;fontSize=13;fontFamily=Helvetica;" parent="1" vertex="1">
          <mxGeometry x="494" y="-307" width="1143" height="329" as="geometry" />
        </mxCell>
      </root>
    </mxGraphModel>
  </diagram>
  <diagram name="Copy of Page-1" id="YmCrxXUrbVdQyq3R-kzb">
    <mxGraphModel dx="2607" dy="1436" grid="1" gridSize="10" guides="1" tooltips="1" connect="1" arrows="1" fold="1" page="1" pageScale="1" pageWidth="827" pageHeight="1169" math="0" shadow="0">
      <root>
        <mxCell id="jS3d8H57Off99weg46n1-0" />
        <mxCell id="jS3d8H57Off99weg46n1-1" parent="jS3d8H57Off99weg46n1-0" />
        <mxCell id="iUSkBLwJn5Xz3_LzBEqI-134" value="Conta FME BFF" style="points=[[0,0],[0.25,0],[0.5,0],[0.75,0],[1,0],[1,0.25],[1,0.5],[1,0.75],[1,1],[0.75,1],[0.5,1],[0.25,1],[0,1],[0,0.75],[0,0.5],[0,0.25]];outlineConnect=0;gradientColor=none;html=1;whiteSpace=wrap;fontSize=12;fontStyle=0;container=1;pointerEvents=0;collapsible=0;recursiveResize=0;shape=mxgraph.aws4.group;grIcon=mxgraph.aws4.group_aws_cloud;strokeColor=#232F3E;fillColor=none;verticalAlign=top;align=left;spacingLeft=30;fontColor=#232F3E;dashed=0;" vertex="1" parent="jS3d8H57Off99weg46n1-1">
          <mxGeometry x="608" y="2430" width="308" height="509.5" as="geometry" />
        </mxCell>
        <mxCell id="jS3d8H57Off99weg46n1-38" value="&lt;div style=&quot;text-align: left ; font-size: 15px&quot;&gt;&lt;span style=&quot;font-weight: normal&quot;&gt;&lt;font style=&quot;font-size: 15px&quot;&gt;Você recebeu a missão de projetar a arquitetura do PIX dentro do Itaú e recebeu os seguintes requisitos funcionais e não funcionais:&lt;/font&gt;&lt;/span&gt;&lt;/div&gt;&lt;div style=&quot;text-align: left ; font-size: 15px&quot;&gt;&lt;ul&gt;&lt;li&gt;&lt;span style=&quot;font-weight: 400&quot;&gt;O sistema deverá ser capaz de receber a ordem de transferência dos Apps e efetivar o débito(-) na conta do cliente solicitante antes de creditar (+) a conta do cliente destinatário.&lt;/span&gt;&lt;/li&gt;&lt;li&gt;&lt;span style=&quot;font-weight: 400&quot;&gt;O sistema deverá guardar um histórico de todas as transações por 5 anos.&lt;/span&gt;&lt;/li&gt;&lt;li&gt;&lt;span style=&quot;font-weight: normal&quot;&gt;&lt;font style=&quot;font-size: 15px&quot;&gt;Ser compatível com IOS e Android&lt;/font&gt;&lt;/span&gt;&lt;/li&gt;&lt;li&gt;&lt;span style=&quot;font-weight: normal&quot;&gt;&lt;font style=&quot;font-size: 15px&quot;&gt;Inicio com 100 transações diárias, com perspectiva de crescimento para 20 milhões por dia em até 1 ano&lt;/font&gt;&lt;/span&gt;&lt;/li&gt;&lt;li&gt;&lt;span style=&quot;font-weight: normal&quot;&gt;&lt;font style=&quot;font-size: 15px&quot;&gt;Ter ao menos 2 AZs&lt;/font&gt;&lt;/span&gt;&lt;/li&gt;&lt;li&gt;&lt;span style=&quot;font-weight: normal&quot;&gt;Ter log de metricas&lt;/span&gt;&lt;br&gt;&lt;/li&gt;&lt;/ul&gt;&lt;span style=&quot;font-weight: normal&quot;&gt;&lt;font style=&quot;font-size: 15px&quot;&gt;Juntamente com os requisitos, você recebeu a proposta de arquitetura inicial. Faça as correções necessárias para que a solução possa atender os requisitos de forma efetiva, levando em consideração o custo benefício da solução.&lt;/font&gt;&lt;/span&gt;&lt;/div&gt;&lt;div style=&quot;text-align: left ; font-size: 17px&quot;&gt;&lt;font style=&quot;font-size: 17px&quot;&gt;&lt;br&gt;&lt;/font&gt;&lt;/div&gt;&lt;div style=&quot;text-align: left&quot;&gt;&lt;font style=&quot;font-size: 14px&quot;&gt;Obs:&lt;/font&gt;&lt;/div&gt;&lt;div style=&quot;text-align: left&quot;&gt;&lt;font style=&quot;font-size: 13px&quot;&gt;Requisitos de segurança não são obrigatórios&lt;/font&gt;&lt;span&gt;, mas podem haver perguntas relacionadas.&lt;/span&gt;&lt;/div&gt;&lt;div style=&quot;text-align: left&quot;&gt;&lt;font style=&quot;font-size: 13px&quot;&gt;&lt;div&gt;&lt;/div&gt;&lt;/font&gt;&lt;/div&gt;&lt;div style=&quot;text-align: left&quot;&gt;&lt;font style=&quot;font-size: 13px&quot;&gt;FronEnd e Apps não fazem parte do escopo do desenho.&lt;/font&gt;&lt;/div&gt;&lt;div style=&quot;text-align: left&quot;&gt;&lt;p style=&quot;margin-top: 0pt ; margin-bottom: 0pt ; margin-left: 0in ; direction: ltr ; unicode-bidi: embed ; word-break: normal&quot;&gt;&lt;span&gt;&lt;font style=&quot;font-size: 13px&quot;&gt;Não existe resposta certa ou errada, o objetivo do case é avaliar a linha de raciocínio dos candidatos.&lt;/font&gt;&lt;/span&gt;&lt;/p&gt;&lt;/div&gt;&lt;div style=&quot;text-align: left&quot;&gt;&lt;br&gt;&lt;/div&gt;" style="text;html=1;strokeColor=none;fillColor=#E6E6E6;align=center;verticalAlign=middle;whiteSpace=wrap;rounded=0;fontStyle=1;fontSize=13;fontFamily=Helvetica;" vertex="1" parent="jS3d8H57Off99weg46n1-1">
          <mxGeometry x="341" y="823" width="1143" height="329" as="geometry" />
        </mxCell>
        <mxCell id="iBxHyY_IW6UM3VyGQ7x2-0" value="Monitoramento" style="fillColor=#EFF0F3;strokeColor=none;dashed=0;verticalAlign=top;fontStyle=0;fontColor=#232F3D;whiteSpace=wrap;html=1;" vertex="1" parent="jS3d8H57Off99weg46n1-1">
          <mxGeometry x="528" y="1272" width="293" height="175" as="geometry" />
        </mxCell>
        <mxCell id="iBxHyY_IW6UM3VyGQ7x2-1" value="cloudwatch&lt;div&gt;(logs|metrics|dashboard)&lt;/div&gt;" style="sketch=0;points=[[0,0,0],[0.25,0,0],[0.5,0,0],[0.75,0,0],[1,0,0],[0,1,0],[0.25,1,0],[0.5,1,0],[0.75,1,0],[1,1,0],[0,0.25,0],[0,0.5,0],[0,0.75,0],[1,0.25,0],[1,0.5,0],[1,0.75,0]];points=[[0,0,0],[0.25,0,0],[0.5,0,0],[0.75,0,0],[1,0,0],[0,1,0],[0.25,1,0],[0.5,1,0],[0.75,1,0],[1,1,0],[0,0.25,0],[0,0.5,0],[0,0.75,0],[1,0.25,0],[1,0.5,0],[1,0.75,0]];outlineConnect=0;fontColor=#232F3E;fillColor=#E7157B;strokeColor=#ffffff;dashed=0;verticalLabelPosition=bottom;verticalAlign=top;align=center;html=1;fontSize=12;fontStyle=0;aspect=fixed;shape=mxgraph.aws4.resourceIcon;resIcon=mxgraph.aws4.cloudwatch_2;" vertex="1" parent="jS3d8H57Off99weg46n1-1">
          <mxGeometry x="575" y="1304.5" width="78" height="78" as="geometry" />
        </mxCell>
        <mxCell id="iBxHyY_IW6UM3VyGQ7x2-2" value="x-ray&lt;div&gt;(tracing)&lt;/div&gt;" style="sketch=0;points=[[0,0,0],[0.25,0,0],[0.5,0,0],[0.75,0,0],[1,0,0],[0,1,0],[0.25,1,0],[0.5,1,0],[0.75,1,0],[1,1,0],[0,0.25,0],[0,0.5,0],[0,0.75,0],[1,0.25,0],[1,0.5,0],[1,0.75,0]];outlineConnect=0;fontColor=#232F3E;fillColor=#C925D1;strokeColor=#ffffff;dashed=0;verticalLabelPosition=bottom;verticalAlign=top;align=center;html=1;fontSize=12;fontStyle=0;aspect=fixed;shape=mxgraph.aws4.resourceIcon;resIcon=mxgraph.aws4.xray;" vertex="1" parent="jS3d8H57Off99weg46n1-1">
          <mxGeometry x="702" y="1304.5" width="78" height="78" as="geometry" />
        </mxCell>
        <mxCell id="iBxHyY_IW6UM3VyGQ7x2-3" value="Segurança" style="fillColor=#EFF0F3;strokeColor=none;dashed=0;verticalAlign=top;fontStyle=0;fontColor=#232F3D;whiteSpace=wrap;html=1;" vertex="1" parent="jS3d8H57Off99weg46n1-1">
          <mxGeometry x="885" y="1276" width="367" height="171" as="geometry" />
        </mxCell>
        <mxCell id="iBxHyY_IW6UM3VyGQ7x2-4" value="WAF&lt;div&gt;(IP blocking)&lt;/div&gt;" style="sketch=0;points=[[0,0,0],[0.25,0,0],[0.5,0,0],[0.75,0,0],[1,0,0],[0,1,0],[0.25,1,0],[0.5,1,0],[0.75,1,0],[1,1,0],[0,0.25,0],[0,0.5,0],[0,0.75,0],[1,0.25,0],[1,0.5,0],[1,0.75,0]];outlineConnect=0;fontColor=#232F3E;fillColor=#DD344C;strokeColor=#ffffff;dashed=0;verticalLabelPosition=bottom;verticalAlign=top;align=center;html=1;fontSize=12;fontStyle=0;aspect=fixed;shape=mxgraph.aws4.resourceIcon;resIcon=mxgraph.aws4.waf;" vertex="1" parent="jS3d8H57Off99weg46n1-1">
          <mxGeometry x="1148" y="1309" width="78" height="78" as="geometry" />
        </mxCell>
        <mxCell id="iBxHyY_IW6UM3VyGQ7x2-5" value="shield&lt;div&gt;(DDoS protection&amp;nbsp;&lt;span style=&quot;background-color: initial;&quot;&gt;on layers&lt;/span&gt;&lt;/div&gt;&lt;div&gt;3-network and&amp;nbsp;&lt;span style=&quot;background-color: initial;&quot;&gt;4-transport)&lt;/span&gt;&lt;/div&gt;" style="sketch=0;points=[[0,0,0],[0.25,0,0],[0.5,0,0],[0.75,0,0],[1,0,0],[0,1,0],[0.25,1,0],[0.5,1,0],[0.75,1,0],[1,1,0],[0,0.25,0],[0,0.5,0],[0,0.75,0],[1,0.25,0],[1,0.5,0],[1,0.75,0]];outlineConnect=0;fontColor=#232F3E;fillColor=#DD344C;strokeColor=#ffffff;dashed=0;verticalLabelPosition=bottom;verticalAlign=top;align=center;html=1;fontSize=12;fontStyle=0;aspect=fixed;shape=mxgraph.aws4.resourceIcon;resIcon=mxgraph.aws4.shield;" vertex="1" parent="jS3d8H57Off99weg46n1-1">
          <mxGeometry x="1026.5" y="1311" width="78" height="78" as="geometry" />
        </mxCell>
        <mxCell id="iBxHyY_IW6UM3VyGQ7x2-6" value="IAM&lt;div&gt;(roles|policies)&lt;/div&gt;" style="sketch=0;points=[[0,0,0],[0.25,0,0],[0.5,0,0],[0.75,0,0],[1,0,0],[0,1,0],[0.25,1,0],[0.5,1,0],[0.75,1,0],[1,1,0],[0,0.25,0],[0,0.5,0],[0,0.75,0],[1,0.25,0],[1,0.5,0],[1,0.75,0]];outlineConnect=0;fontColor=#232F3E;fillColor=#DD344C;strokeColor=#ffffff;dashed=0;verticalLabelPosition=bottom;verticalAlign=top;align=center;html=1;fontSize=12;fontStyle=0;aspect=fixed;shape=mxgraph.aws4.resourceIcon;resIcon=mxgraph.aws4.identity_and_access_management;" vertex="1" parent="jS3d8H57Off99weg46n1-1">
          <mxGeometry x="905" y="1311" width="78" height="78" as="geometry" />
        </mxCell>
        <mxCell id="iUSkBLwJn5Xz3_LzBEqI-0" value="Conta Corrente" style="points=[[0,0],[0.25,0],[0.5,0],[0.75,0],[1,0],[1,0.25],[1,0.5],[1,0.75],[1,1],[0.75,1],[0.5,1],[0.25,1],[0,1],[0,0.75],[0,0.5],[0,0.25]];outlineConnect=0;gradientColor=none;html=1;whiteSpace=wrap;fontSize=12;fontStyle=0;container=1;pointerEvents=0;collapsible=0;recursiveResize=0;shape=mxgraph.aws4.group;grIcon=mxgraph.aws4.group_aws_cloud;strokeColor=#232F3E;fillColor=none;verticalAlign=top;align=left;spacingLeft=30;fontColor=#232F3E;dashed=0;" vertex="1" parent="jS3d8H57Off99weg46n1-1">
          <mxGeometry x="510" y="1485" width="690" height="561" as="geometry" />
        </mxCell>
        <mxCell id="iUSkBLwJn5Xz3_LzBEqI-3" value="dynamodb" style="sketch=0;points=[[0,0,0],[0.25,0,0],[0.5,0,0],[0.75,0,0],[1,0,0],[0,1,0],[0.25,1,0],[0.5,1,0],[0.75,1,0],[1,1,0],[0,0.25,0],[0,0.5,0],[0,0.75,0],[1,0.25,0],[1,0.5,0],[1,0.75,0]];outlineConnect=0;fontColor=#232F3E;fillColor=#C925D1;strokeColor=#ffffff;dashed=0;verticalLabelPosition=bottom;verticalAlign=top;align=center;html=1;fontSize=12;fontStyle=0;aspect=fixed;shape=mxgraph.aws4.resourceIcon;resIcon=mxgraph.aws4.dynamodb;" vertex="1" parent="iUSkBLwJn5Xz3_LzBEqI-0">
          <mxGeometry x="467" y="83" width="78" height="78" as="geometry" />
        </mxCell>
        <mxCell id="iUSkBLwJn5Xz3_LzBEqI-17" style="edgeStyle=orthogonalEdgeStyle;rounded=0;orthogonalLoop=1;jettySize=auto;html=1;" edge="1" parent="jS3d8H57Off99weg46n1-1" source="iUSkBLwJn5Xz3_LzBEqI-1" target="iUSkBLwJn5Xz3_LzBEqI-3">
          <mxGeometry relative="1" as="geometry" />
        </mxCell>
        <mxCell id="iUSkBLwJn5Xz3_LzBEqI-1" value="pix-function" style="sketch=0;outlineConnect=0;fontColor=#232F3E;gradientColor=none;fillColor=#ED7100;strokeColor=none;dashed=0;verticalLabelPosition=bottom;verticalAlign=top;align=center;html=1;fontSize=12;fontStyle=0;aspect=fixed;pointerEvents=1;shape=mxgraph.aws4.lambda_function;" vertex="1" parent="jS3d8H57Off99weg46n1-1">
          <mxGeometry x="755" y="1583" width="48" height="48" as="geometry" />
        </mxCell>
        <mxCell id="iUSkBLwJn5Xz3_LzBEqI-14" style="edgeStyle=orthogonalEdgeStyle;rounded=0;orthogonalLoop=1;jettySize=auto;html=1;" edge="1" parent="jS3d8H57Off99weg46n1-1" source="iUSkBLwJn5Xz3_LzBEqI-2" target="iUSkBLwJn5Xz3_LzBEqI-1">
          <mxGeometry relative="1" as="geometry" />
        </mxCell>
        <mxCell id="iUSkBLwJn5Xz3_LzBEqI-2" value="api gateway" style="sketch=0;points=[[0,0,0],[0.25,0,0],[0.5,0,0],[0.75,0,0],[1,0,0],[0,1,0],[0.25,1,0],[0.5,1,0],[0.75,1,0],[1,1,0],[0,0.25,0],[0,0.5,0],[0,0.75,0],[1,0.25,0],[1,0.5,0],[1,0.75,0]];outlineConnect=0;fontColor=#232F3E;fillColor=#E7157B;strokeColor=#ffffff;dashed=0;verticalLabelPosition=bottom;verticalAlign=top;align=center;html=1;fontSize=12;fontStyle=0;aspect=fixed;shape=mxgraph.aws4.resourceIcon;resIcon=mxgraph.aws4.api_gateway;" vertex="1" parent="jS3d8H57Off99weg46n1-1">
          <mxGeometry x="564" y="1568" width="78" height="78" as="geometry" />
        </mxCell>
        <mxCell id="iUSkBLwJn5Xz3_LzBEqI-4" value="cognito" style="sketch=0;points=[[0,0,0],[0.25,0,0],[0.5,0,0],[0.75,0,0],[1,0,0],[0,1,0],[0.25,1,0],[0.5,1,0],[0.75,1,0],[1,1,0],[0,0.25,0],[0,0.5,0],[0,0.75,0],[1,0.25,0],[1,0.5,0],[1,0.75,0]];outlineConnect=0;fontColor=#232F3E;fillColor=#DD344C;strokeColor=#ffffff;dashed=0;verticalLabelPosition=bottom;verticalAlign=top;align=center;html=1;fontSize=12;fontStyle=0;aspect=fixed;shape=mxgraph.aws4.resourceIcon;resIcon=mxgraph.aws4.cognito;" vertex="1" parent="jS3d8H57Off99weg46n1-1">
          <mxGeometry x="577" y="1715" width="52" height="52" as="geometry" />
        </mxCell>
        <mxCell id="iUSkBLwJn5Xz3_LzBEqI-25" style="edgeStyle=orthogonalEdgeStyle;rounded=0;orthogonalLoop=1;jettySize=auto;html=1;" edge="1" parent="jS3d8H57Off99weg46n1-1" source="iUSkBLwJn5Xz3_LzBEqI-5" target="iUSkBLwJn5Xz3_LzBEqI-11">
          <mxGeometry relative="1" as="geometry" />
        </mxCell>
        <mxCell id="iUSkBLwJn5Xz3_LzBEqI-5" value="event bridge" style="sketch=0;points=[[0,0,0],[0.25,0,0],[0.5,0,0],[0.75,0,0],[1,0,0],[0,1,0],[0.25,1,0],[0.5,1,0],[0.75,1,0],[1,1,0],[0,0.25,0],[0,0.5,0],[0,0.75,0],[1,0.25,0],[1,0.5,0],[1,0.75,0]];outlineConnect=0;fontColor=#232F3E;fillColor=#E7157B;strokeColor=#ffffff;dashed=0;verticalLabelPosition=bottom;verticalAlign=top;align=center;html=1;fontSize=12;fontStyle=0;aspect=fixed;shape=mxgraph.aws4.resourceIcon;resIcon=mxgraph.aws4.eventbridge;" vertex="1" parent="jS3d8H57Off99weg46n1-1">
          <mxGeometry x="569.5" y="1865" width="78" height="78" as="geometry" />
        </mxCell>
        <mxCell id="iUSkBLwJn5Xz3_LzBEqI-6" value="S3" style="sketch=0;outlineConnect=0;fontColor=#232F3E;gradientColor=none;fillColor=#7AA116;strokeColor=none;dashed=0;verticalLabelPosition=bottom;verticalAlign=top;align=center;html=1;fontSize=12;fontStyle=0;aspect=fixed;pointerEvents=1;shape=mxgraph.aws4.bucket;" vertex="1" parent="jS3d8H57Off99weg46n1-1">
          <mxGeometry x="906.5" y="1865" width="75" height="78" as="geometry" />
        </mxCell>
        <mxCell id="iUSkBLwJn5Xz3_LzBEqI-7" value="" style="html=1;verticalLabelPosition=bottom;align=center;labelBackgroundColor=#ffffff;verticalAlign=top;strokeWidth=2;strokeColor=#E7157B;shadow=0;dashed=0;shape=mxgraph.ios7.icons.clock;fillColor=default;" vertex="1" parent="jS3d8H57Off99weg46n1-1">
          <mxGeometry x="628.5" y="1850" width="30" height="30" as="geometry" />
        </mxCell>
        <mxCell id="iUSkBLwJn5Xz3_LzBEqI-10" value="mobile" style="verticalLabelPosition=bottom;verticalAlign=top;html=1;shadow=0;dashed=0;strokeWidth=1;shape=mxgraph.android.phone2;strokeColor=#c0c0c0;" vertex="1" parent="jS3d8H57Off99weg46n1-1">
          <mxGeometry x="339" y="1568" width="35.9" height="70" as="geometry" />
        </mxCell>
        <mxCell id="iUSkBLwJn5Xz3_LzBEqI-26" style="edgeStyle=orthogonalEdgeStyle;rounded=0;orthogonalLoop=1;jettySize=auto;html=1;" edge="1" parent="jS3d8H57Off99weg46n1-1" source="iUSkBLwJn5Xz3_LzBEqI-11" target="iUSkBLwJn5Xz3_LzBEqI-6">
          <mxGeometry relative="1" as="geometry" />
        </mxCell>
        <mxCell id="iUSkBLwJn5Xz3_LzBEqI-11" value="purge-function" style="sketch=0;outlineConnect=0;fontColor=#232F3E;gradientColor=none;fillColor=#ED7100;strokeColor=none;dashed=0;verticalLabelPosition=bottom;verticalAlign=top;align=center;html=1;fontSize=12;fontStyle=0;aspect=fixed;pointerEvents=1;shape=mxgraph.aws4.lambda_function;" vertex="1" parent="jS3d8H57Off99weg46n1-1">
          <mxGeometry x="742" y="1880" width="48" height="48" as="geometry" />
        </mxCell>
        <mxCell id="iUSkBLwJn5Xz3_LzBEqI-12" value="Validação payload&lt;div&gt;Autorização&lt;/div&gt;" style="text;html=1;align=left;verticalAlign=middle;resizable=0;points=[];autosize=1;strokeColor=none;fillColor=none;" vertex="1" parent="jS3d8H57Off99weg46n1-1">
          <mxGeometry x="564" y="1516" width="116" height="41" as="geometry" />
        </mxCell>
        <mxCell id="iUSkBLwJn5Xz3_LzBEqI-13" style="edgeStyle=orthogonalEdgeStyle;rounded=0;orthogonalLoop=1;jettySize=auto;html=1;entryX=0.5;entryY=0;entryDx=0;entryDy=0;entryPerimeter=0;dashed=1;" edge="1" parent="jS3d8H57Off99weg46n1-1" source="iUSkBLwJn5Xz3_LzBEqI-2" target="iUSkBLwJn5Xz3_LzBEqI-4">
          <mxGeometry relative="1" as="geometry" />
        </mxCell>
        <mxCell id="iUSkBLwJn5Xz3_LzBEqI-15" value="Autenticação" style="text;html=1;align=center;verticalAlign=middle;resizable=0;points=[];autosize=1;strokeColor=none;fillColor=none;" vertex="1" parent="jS3d8H57Off99weg46n1-1">
          <mxGeometry x="629" y="1712" width="87" height="26" as="geometry" />
        </mxCell>
        <mxCell id="iUSkBLwJn5Xz3_LzBEqI-16" value="Valida contas (origem, destino&lt;span style=&quot;background-color: initial;&quot;&gt;)&lt;/span&gt;&lt;div&gt;&lt;span style=&quot;background-color: initial;&quot;&gt;Valida saldo conta origem&lt;/span&gt;&lt;/div&gt;&lt;div&gt;&lt;span style=&quot;background-color: initial;&quot;&gt;Efetua debido conta origem&lt;/span&gt;&lt;/div&gt;&lt;div&gt;&lt;span style=&quot;background-color: initial;&quot;&gt;efetua credito conta destino&lt;/span&gt;&lt;/div&gt;" style="text;html=1;align=left;verticalAlign=middle;resizable=0;points=[];autosize=1;strokeColor=none;fillColor=none;" vertex="1" parent="jS3d8H57Off99weg46n1-1">
          <mxGeometry x="733" y="1507" width="183" height="70" as="geometry" />
        </mxCell>
        <mxCell id="iUSkBLwJn5Xz3_LzBEqI-18" value="Regra agendara para&lt;div&gt;disparar lambda&lt;/div&gt;" style="text;html=1;align=left;verticalAlign=middle;resizable=0;points=[];autosize=1;strokeColor=none;fillColor=none;" vertex="1" parent="jS3d8H57Off99weg46n1-1">
          <mxGeometry x="569.5" y="1976" width="132" height="41" as="geometry" />
        </mxCell>
        <mxCell id="iUSkBLwJn5Xz3_LzBEqI-19" value="Realiza expurgo dos dados&amp;nbsp;&lt;div&gt;do CW log group para o S3&lt;/div&gt;" style="text;html=1;align=left;verticalAlign=middle;resizable=0;points=[];autosize=1;strokeColor=none;fillColor=none;" vertex="1" parent="jS3d8H57Off99weg46n1-1">
          <mxGeometry x="720" y="1976" width="167" height="41" as="geometry" />
        </mxCell>
        <mxCell id="iUSkBLwJn5Xz3_LzBEqI-20" value="Armazena os logs do CW&lt;div&gt;Realiza o expurgo dos dados de forma automática&lt;/div&gt;&lt;div&gt;através do s3 lifecycle&lt;/div&gt;" style="text;html=1;align=left;verticalAlign=middle;resizable=0;points=[];autosize=1;strokeColor=none;fillColor=none;" vertex="1" parent="jS3d8H57Off99weg46n1-1">
          <mxGeometry x="902" y="1974" width="286" height="55" as="geometry" />
        </mxCell>
        <mxCell id="iUSkBLwJn5Xz3_LzBEqI-21" value="" style="endArrow=classic;html=1;rounded=0;entryX=0;entryY=0.5;entryDx=0;entryDy=0;entryPerimeter=0;exitX=0.975;exitY=0.629;exitDx=0;exitDy=0;exitPerimeter=0;" edge="1" parent="jS3d8H57Off99weg46n1-1" source="iUSkBLwJn5Xz3_LzBEqI-10" target="iUSkBLwJn5Xz3_LzBEqI-4">
          <mxGeometry width="50" height="50" relative="1" as="geometry">
            <mxPoint x="397" y="1726" as="sourcePoint" />
            <mxPoint x="447" y="1676" as="targetPoint" />
          </mxGeometry>
        </mxCell>
        <mxCell id="iUSkBLwJn5Xz3_LzBEqI-22" value="" style="endArrow=classic;html=1;rounded=0;entryX=0;entryY=0.5;entryDx=0;entryDy=0;entryPerimeter=0;exitX=0.975;exitY=0.643;exitDx=0;exitDy=0;exitPerimeter=0;" edge="1" parent="jS3d8H57Off99weg46n1-1" source="iUSkBLwJn5Xz3_LzBEqI-10" target="iUSkBLwJn5Xz3_LzBEqI-2">
          <mxGeometry width="50" height="50" relative="1" as="geometry">
            <mxPoint x="382" y="1784" as="sourcePoint" />
            <mxPoint x="432" y="1734" as="targetPoint" />
          </mxGeometry>
        </mxCell>
        <mxCell id="iUSkBLwJn5Xz3_LzBEqI-23" value="1" style="text;html=1;align=center;verticalAlign=middle;resizable=0;points=[];autosize=1;strokeColor=#d79b00;fillColor=#ffe6cc;rounded=1;" vertex="1" parent="jS3d8H57Off99weg46n1-1">
          <mxGeometry x="401" y="1646" width="25" height="26" as="geometry" />
        </mxCell>
        <mxCell id="iUSkBLwJn5Xz3_LzBEqI-24" value="2" style="text;html=1;align=center;verticalAlign=middle;resizable=0;points=[];autosize=1;strokeColor=#d79b00;fillColor=#ffe6cc;rounded=1;" vertex="1" parent="jS3d8H57Off99weg46n1-1">
          <mxGeometry x="414" y="1577" width="25" height="26" as="geometry" />
        </mxCell>
        <mxCell id="iUSkBLwJn5Xz3_LzBEqI-59" value="Monitoramento" style="fillColor=#EFF0F3;strokeColor=none;dashed=0;verticalAlign=top;fontStyle=0;fontColor=#232F3D;whiteSpace=wrap;html=1;" vertex="1" parent="jS3d8H57Off99weg46n1-1">
          <mxGeometry x="1866" y="1276" width="293" height="175" as="geometry" />
        </mxCell>
        <mxCell id="iUSkBLwJn5Xz3_LzBEqI-60" value="cloudwatch&lt;div&gt;(logs|metrics|dashboard)&lt;/div&gt;" style="sketch=0;points=[[0,0,0],[0.25,0,0],[0.5,0,0],[0.75,0,0],[1,0,0],[0,1,0],[0.25,1,0],[0.5,1,0],[0.75,1,0],[1,1,0],[0,0.25,0],[0,0.5,0],[0,0.75,0],[1,0.25,0],[1,0.5,0],[1,0.75,0]];points=[[0,0,0],[0.25,0,0],[0.5,0,0],[0.75,0,0],[1,0,0],[0,1,0],[0.25,1,0],[0.5,1,0],[0.75,1,0],[1,1,0],[0,0.25,0],[0,0.5,0],[0,0.75,0],[1,0.25,0],[1,0.5,0],[1,0.75,0]];outlineConnect=0;fontColor=#232F3E;fillColor=#E7157B;strokeColor=#ffffff;dashed=0;verticalLabelPosition=bottom;verticalAlign=top;align=center;html=1;fontSize=12;fontStyle=0;aspect=fixed;shape=mxgraph.aws4.resourceIcon;resIcon=mxgraph.aws4.cloudwatch_2;" vertex="1" parent="jS3d8H57Off99weg46n1-1">
          <mxGeometry x="1913" y="1308.5" width="78" height="78" as="geometry" />
        </mxCell>
        <mxCell id="iUSkBLwJn5Xz3_LzBEqI-61" value="x-ray&lt;div&gt;(tracing)&lt;/div&gt;" style="sketch=0;points=[[0,0,0],[0.25,0,0],[0.5,0,0],[0.75,0,0],[1,0,0],[0,1,0],[0.25,1,0],[0.5,1,0],[0.75,1,0],[1,1,0],[0,0.25,0],[0,0.5,0],[0,0.75,0],[1,0.25,0],[1,0.5,0],[1,0.75,0]];outlineConnect=0;fontColor=#232F3E;fillColor=#C925D1;strokeColor=#ffffff;dashed=0;verticalLabelPosition=bottom;verticalAlign=top;align=center;html=1;fontSize=12;fontStyle=0;aspect=fixed;shape=mxgraph.aws4.resourceIcon;resIcon=mxgraph.aws4.xray;" vertex="1" parent="jS3d8H57Off99weg46n1-1">
          <mxGeometry x="2040" y="1308.5" width="78" height="78" as="geometry" />
        </mxCell>
        <mxCell id="iUSkBLwJn5Xz3_LzBEqI-62" value="Segurança" style="fillColor=#EFF0F3;strokeColor=none;dashed=0;verticalAlign=top;fontStyle=0;fontColor=#232F3D;whiteSpace=wrap;html=1;" vertex="1" parent="jS3d8H57Off99weg46n1-1">
          <mxGeometry x="2223" y="1280" width="367" height="171" as="geometry" />
        </mxCell>
        <mxCell id="iUSkBLwJn5Xz3_LzBEqI-63" value="WAF&lt;div&gt;(IP blocking)&lt;/div&gt;" style="sketch=0;points=[[0,0,0],[0.25,0,0],[0.5,0,0],[0.75,0,0],[1,0,0],[0,1,0],[0.25,1,0],[0.5,1,0],[0.75,1,0],[1,1,0],[0,0.25,0],[0,0.5,0],[0,0.75,0],[1,0.25,0],[1,0.5,0],[1,0.75,0]];outlineConnect=0;fontColor=#232F3E;fillColor=#DD344C;strokeColor=#ffffff;dashed=0;verticalLabelPosition=bottom;verticalAlign=top;align=center;html=1;fontSize=12;fontStyle=0;aspect=fixed;shape=mxgraph.aws4.resourceIcon;resIcon=mxgraph.aws4.waf;" vertex="1" parent="jS3d8H57Off99weg46n1-1">
          <mxGeometry x="2486" y="1313" width="78" height="78" as="geometry" />
        </mxCell>
        <mxCell id="iUSkBLwJn5Xz3_LzBEqI-64" value="shield&lt;div&gt;(DDoS protection&amp;nbsp;&lt;span style=&quot;background-color: initial;&quot;&gt;on layers&lt;/span&gt;&lt;/div&gt;&lt;div&gt;3-network and&amp;nbsp;&lt;span style=&quot;background-color: initial;&quot;&gt;4-transport)&lt;/span&gt;&lt;/div&gt;" style="sketch=0;points=[[0,0,0],[0.25,0,0],[0.5,0,0],[0.75,0,0],[1,0,0],[0,1,0],[0.25,1,0],[0.5,1,0],[0.75,1,0],[1,1,0],[0,0.25,0],[0,0.5,0],[0,0.75,0],[1,0.25,0],[1,0.5,0],[1,0.75,0]];outlineConnect=0;fontColor=#232F3E;fillColor=#DD344C;strokeColor=#ffffff;dashed=0;verticalLabelPosition=bottom;verticalAlign=top;align=center;html=1;fontSize=12;fontStyle=0;aspect=fixed;shape=mxgraph.aws4.resourceIcon;resIcon=mxgraph.aws4.shield;" vertex="1" parent="jS3d8H57Off99weg46n1-1">
          <mxGeometry x="2364.5" y="1315" width="78" height="78" as="geometry" />
        </mxCell>
        <mxCell id="iUSkBLwJn5Xz3_LzBEqI-65" value="IAM&lt;div&gt;(roles|policies)&lt;/div&gt;" style="sketch=0;points=[[0,0,0],[0.25,0,0],[0.5,0,0],[0.75,0,0],[1,0,0],[0,1,0],[0.25,1,0],[0.5,1,0],[0.75,1,0],[1,1,0],[0,0.25,0],[0,0.5,0],[0,0.75,0],[1,0.25,0],[1,0.5,0],[1,0.75,0]];outlineConnect=0;fontColor=#232F3E;fillColor=#DD344C;strokeColor=#ffffff;dashed=0;verticalLabelPosition=bottom;verticalAlign=top;align=center;html=1;fontSize=12;fontStyle=0;aspect=fixed;shape=mxgraph.aws4.resourceIcon;resIcon=mxgraph.aws4.identity_and_access_management;" vertex="1" parent="jS3d8H57Off99weg46n1-1">
          <mxGeometry x="2243" y="1315" width="78" height="78" as="geometry" />
        </mxCell>
        <mxCell id="iUSkBLwJn5Xz3_LzBEqI-66" value="Conta Corrente" style="points=[[0,0],[0.25,0],[0.5,0],[0.75,0],[1,0],[1,0.25],[1,0.5],[1,0.75],[1,1],[0.75,1],[0.5,1],[0.25,1],[0,1],[0,0.75],[0,0.5],[0,0.25]];outlineConnect=0;gradientColor=none;html=1;whiteSpace=wrap;fontSize=12;fontStyle=0;container=1;pointerEvents=0;collapsible=0;recursiveResize=0;shape=mxgraph.aws4.group;grIcon=mxgraph.aws4.group_aws_cloud;strokeColor=#232F3E;fillColor=none;verticalAlign=top;align=left;spacingLeft=30;fontColor=#232F3E;dashed=0;" vertex="1" parent="jS3d8H57Off99weg46n1-1">
          <mxGeometry x="1848" y="1489" width="732" height="680" as="geometry" />
        </mxCell>
        <mxCell id="iUSkBLwJn5Xz3_LzBEqI-8" value="AWS Step Functions&amp;nbsp;&lt;div&gt;PIX workflow&lt;/div&gt;" style="points=[[0,0],[0.25,0],[0.5,0],[0.75,0],[1,0],[1,0.25],[1,0.5],[1,0.75],[1,1],[0.75,1],[0.5,1],[0.25,1],[0,1],[0,0.75],[0,0.5],[0,0.25]];outlineConnect=0;gradientColor=none;html=1;whiteSpace=wrap;fontSize=12;fontStyle=0;container=1;pointerEvents=0;collapsible=0;recursiveResize=0;shape=mxgraph.aws4.group;grIcon=mxgraph.aws4.group_aws_step_functions_workflow;strokeColor=#CD2264;fillColor=none;verticalAlign=top;align=left;spacingLeft=30;fontColor=#CD2264;dashed=0;" vertex="1" parent="iUSkBLwJn5Xz3_LzBEqI-66">
          <mxGeometry x="232" y="27" width="169" height="430" as="geometry" />
        </mxCell>
        <mxCell id="iUSkBLwJn5Xz3_LzBEqI-95" style="edgeStyle=orthogonalEdgeStyle;rounded=0;orthogonalLoop=1;jettySize=auto;html=1;" edge="1" parent="iUSkBLwJn5Xz3_LzBEqI-8" source="iUSkBLwJn5Xz3_LzBEqI-91" target="iUSkBLwJn5Xz3_LzBEqI-92">
          <mxGeometry relative="1" as="geometry" />
        </mxCell>
        <mxCell id="iUSkBLwJn5Xz3_LzBEqI-91" value="valida contas" style="sketch=0;outlineConnect=0;fontColor=#232F3E;gradientColor=none;fillColor=#ED7100;strokeColor=none;dashed=0;verticalLabelPosition=bottom;verticalAlign=top;align=center;html=1;fontSize=12;fontStyle=0;aspect=fixed;pointerEvents=1;shape=mxgraph.aws4.lambda_function;" vertex="1" parent="iUSkBLwJn5Xz3_LzBEqI-8">
          <mxGeometry x="60.5" y="57" width="48" height="48" as="geometry" />
        </mxCell>
        <mxCell id="iUSkBLwJn5Xz3_LzBEqI-96" style="edgeStyle=orthogonalEdgeStyle;rounded=0;orthogonalLoop=1;jettySize=auto;html=1;" edge="1" parent="iUSkBLwJn5Xz3_LzBEqI-8" source="iUSkBLwJn5Xz3_LzBEqI-92" target="iUSkBLwJn5Xz3_LzBEqI-93">
          <mxGeometry relative="1" as="geometry" />
        </mxCell>
        <mxCell id="iUSkBLwJn5Xz3_LzBEqI-92" value="valida saldo" style="sketch=0;outlineConnect=0;fontColor=#232F3E;gradientColor=none;fillColor=#ED7100;strokeColor=none;dashed=0;verticalLabelPosition=bottom;verticalAlign=top;align=center;html=1;fontSize=12;fontStyle=0;aspect=fixed;pointerEvents=1;shape=mxgraph.aws4.lambda_function;" vertex="1" parent="iUSkBLwJn5Xz3_LzBEqI-8">
          <mxGeometry x="60.5" y="149" width="48" height="48" as="geometry" />
        </mxCell>
        <mxCell id="iUSkBLwJn5Xz3_LzBEqI-97" style="edgeStyle=orthogonalEdgeStyle;rounded=0;orthogonalLoop=1;jettySize=auto;html=1;" edge="1" parent="iUSkBLwJn5Xz3_LzBEqI-8" source="iUSkBLwJn5Xz3_LzBEqI-93" target="iUSkBLwJn5Xz3_LzBEqI-94">
          <mxGeometry relative="1" as="geometry" />
        </mxCell>
        <mxCell id="iUSkBLwJn5Xz3_LzBEqI-93" value="executa debito" style="sketch=0;outlineConnect=0;fontColor=#232F3E;gradientColor=none;fillColor=#ED7100;strokeColor=none;dashed=0;verticalLabelPosition=bottom;verticalAlign=top;align=center;html=1;fontSize=12;fontStyle=0;aspect=fixed;pointerEvents=1;shape=mxgraph.aws4.lambda_function;" vertex="1" parent="iUSkBLwJn5Xz3_LzBEqI-8">
          <mxGeometry x="60.5" y="241" width="48" height="48" as="geometry" />
        </mxCell>
        <mxCell id="iUSkBLwJn5Xz3_LzBEqI-94" value="executa credito" style="sketch=0;outlineConnect=0;fontColor=#232F3E;gradientColor=none;fillColor=#ED7100;strokeColor=none;dashed=0;verticalLabelPosition=bottom;verticalAlign=top;align=center;html=1;fontSize=12;fontStyle=0;aspect=fixed;pointerEvents=1;shape=mxgraph.aws4.lambda_function;" vertex="1" parent="iUSkBLwJn5Xz3_LzBEqI-8">
          <mxGeometry x="60.5" y="338" width="48" height="48" as="geometry" />
        </mxCell>
        <mxCell id="iUSkBLwJn5Xz3_LzBEqI-112" value="" style="group" vertex="1" connectable="0" parent="iUSkBLwJn5Xz3_LzBEqI-66">
          <mxGeometry x="432" y="27" width="218" height="439" as="geometry" />
        </mxCell>
        <mxCell id="iUSkBLwJn5Xz3_LzBEqI-100" value="" style="sketch=0;points=[[0,0,0],[0.25,0,0],[0.5,0,0],[0.75,0,0],[1,0,0],[0,1,0],[0.25,1,0],[0.5,1,0],[0.75,1,0],[1,1,0],[0,0.25,0],[0,0.5,0],[0,0.75,0],[1,0.25,0],[1,0.5,0],[1,0.75,0]];outlineConnect=0;fontColor=#232F3E;fillColor=#C925D1;strokeColor=#ffffff;dashed=0;verticalLabelPosition=bottom;verticalAlign=top;align=center;html=1;fontSize=12;fontStyle=0;aspect=fixed;shape=mxgraph.aws4.resourceIcon;resIcon=mxgraph.aws4.dynamodb;" vertex="1" parent="iUSkBLwJn5Xz3_LzBEqI-112">
          <mxGeometry width="26" height="26" as="geometry" />
        </mxCell>
        <mxCell id="iUSkBLwJn5Xz3_LzBEqI-110" value="dynamodb" style="fillColor=none;strokeColor=#C925D1;verticalAlign=top;fontStyle=0;fontColor=#C925D1;whiteSpace=wrap;html=1;" vertex="1" parent="iUSkBLwJn5Xz3_LzBEqI-112">
          <mxGeometry width="170" height="430" as="geometry" />
        </mxCell>
        <mxCell id="iUSkBLwJn5Xz3_LzBEqI-101" value="contas" style="sketch=0;outlineConnect=0;fontColor=#232F3E;gradientColor=none;fillColor=#C925D1;strokeColor=none;dashed=0;verticalLabelPosition=bottom;verticalAlign=top;align=center;html=1;fontSize=12;fontStyle=0;aspect=fixed;pointerEvents=1;shape=mxgraph.aws4.table;" vertex="1" parent="iUSkBLwJn5Xz3_LzBEqI-112">
          <mxGeometry x="39.99538461538462" y="57" width="49" height="49" as="geometry" />
        </mxCell>
        <mxCell id="iUSkBLwJn5Xz3_LzBEqI-118" style="edgeStyle=orthogonalEdgeStyle;rounded=0;orthogonalLoop=1;jettySize=auto;html=1;dashed=1;dashPattern=1 1;" edge="1" parent="iUSkBLwJn5Xz3_LzBEqI-112" source="iUSkBLwJn5Xz3_LzBEqI-113" target="iUSkBLwJn5Xz3_LzBEqI-9">
          <mxGeometry relative="1" as="geometry" />
        </mxCell>
        <mxCell id="iUSkBLwJn5Xz3_LzBEqI-113" value="transacoes" style="sketch=0;outlineConnect=0;fontColor=#232F3E;gradientColor=none;fillColor=#C925D1;strokeColor=none;dashed=0;verticalLabelPosition=bottom;verticalAlign=top;align=center;html=1;fontSize=12;fontStyle=0;aspect=fixed;pointerEvents=1;shape=mxgraph.aws4.table;" vertex="1" parent="iUSkBLwJn5Xz3_LzBEqI-112">
          <mxGeometry x="25.995384615384623" y="240" width="49" height="49" as="geometry" />
        </mxCell>
        <mxCell id="iUSkBLwJn5Xz3_LzBEqI-9" value="stream" style="sketch=0;outlineConnect=0;fontColor=#232F3E;gradientColor=none;fillColor=#C925D1;strokeColor=none;dashed=0;verticalLabelPosition=bottom;verticalAlign=top;align=center;html=1;fontSize=12;fontStyle=0;aspect=fixed;pointerEvents=1;shape=mxgraph.aws4.dynamodb_stream;" vertex="1" parent="iUSkBLwJn5Xz3_LzBEqI-112">
          <mxGeometry x="100" y="240.5" width="48" height="48" as="geometry" />
        </mxCell>
        <mxCell id="iUSkBLwJn5Xz3_LzBEqI-114" style="edgeStyle=orthogonalEdgeStyle;rounded=0;orthogonalLoop=1;jettySize=auto;html=1;dashed=1;" edge="1" parent="iUSkBLwJn5Xz3_LzBEqI-66" source="iUSkBLwJn5Xz3_LzBEqI-91" target="iUSkBLwJn5Xz3_LzBEqI-101">
          <mxGeometry relative="1" as="geometry" />
        </mxCell>
        <mxCell id="iUSkBLwJn5Xz3_LzBEqI-115" style="edgeStyle=orthogonalEdgeStyle;rounded=0;orthogonalLoop=1;jettySize=auto;html=1;dashed=1;" edge="1" parent="iUSkBLwJn5Xz3_LzBEqI-66" source="iUSkBLwJn5Xz3_LzBEqI-92" target="iUSkBLwJn5Xz3_LzBEqI-113">
          <mxGeometry relative="1" as="geometry" />
        </mxCell>
        <mxCell id="iUSkBLwJn5Xz3_LzBEqI-116" style="edgeStyle=orthogonalEdgeStyle;rounded=0;orthogonalLoop=1;jettySize=auto;html=1;dashed=1;" edge="1" parent="iUSkBLwJn5Xz3_LzBEqI-66" source="iUSkBLwJn5Xz3_LzBEqI-93" target="iUSkBLwJn5Xz3_LzBEqI-113">
          <mxGeometry relative="1" as="geometry" />
        </mxCell>
        <mxCell id="iUSkBLwJn5Xz3_LzBEqI-117" style="edgeStyle=orthogonalEdgeStyle;rounded=0;orthogonalLoop=1;jettySize=auto;html=1;dashed=1;" edge="1" parent="iUSkBLwJn5Xz3_LzBEqI-66" source="iUSkBLwJn5Xz3_LzBEqI-94" target="iUSkBLwJn5Xz3_LzBEqI-113">
          <mxGeometry relative="1" as="geometry" />
        </mxCell>
        <mxCell id="iUSkBLwJn5Xz3_LzBEqI-73" style="edgeStyle=orthogonalEdgeStyle;rounded=0;orthogonalLoop=1;jettySize=auto;html=1;" edge="1" parent="iUSkBLwJn5Xz3_LzBEqI-66" source="iUSkBLwJn5Xz3_LzBEqI-74" target="iUSkBLwJn5Xz3_LzBEqI-79">
          <mxGeometry relative="1" as="geometry" />
        </mxCell>
        <mxCell id="iUSkBLwJn5Xz3_LzBEqI-74" value="event bridge" style="sketch=0;points=[[0,0,0],[0.25,0,0],[0.5,0,0],[0.75,0,0],[1,0,0],[0,1,0],[0.25,1,0],[0.5,1,0],[0.75,1,0],[1,1,0],[0,0.25,0],[0,0.5,0],[0,0.75,0],[1,0.25,0],[1,0.5,0],[1,0.75,0]];outlineConnect=0;fontColor=#232F3E;fillColor=#E7157B;strokeColor=#ffffff;dashed=0;verticalLabelPosition=bottom;verticalAlign=top;align=center;html=1;fontSize=12;fontStyle=0;aspect=fixed;shape=mxgraph.aws4.resourceIcon;resIcon=mxgraph.aws4.eventbridge;" vertex="1" parent="iUSkBLwJn5Xz3_LzBEqI-66">
          <mxGeometry x="52" y="516" width="78" height="78" as="geometry" />
        </mxCell>
        <mxCell id="iUSkBLwJn5Xz3_LzBEqI-75" value="S3" style="sketch=0;outlineConnect=0;fontColor=#232F3E;gradientColor=none;fillColor=#7AA116;strokeColor=none;dashed=0;verticalLabelPosition=bottom;verticalAlign=top;align=center;html=1;fontSize=12;fontStyle=0;aspect=fixed;pointerEvents=1;shape=mxgraph.aws4.bucket;" vertex="1" parent="iUSkBLwJn5Xz3_LzBEqI-66">
          <mxGeometry x="389" y="516" width="75" height="78" as="geometry" />
        </mxCell>
        <mxCell id="iUSkBLwJn5Xz3_LzBEqI-76" value="" style="html=1;verticalLabelPosition=bottom;align=center;labelBackgroundColor=#ffffff;verticalAlign=top;strokeWidth=2;strokeColor=#E7157B;shadow=0;dashed=0;shape=mxgraph.ios7.icons.clock;fillColor=default;" vertex="1" parent="iUSkBLwJn5Xz3_LzBEqI-66">
          <mxGeometry x="111" y="501" width="30" height="30" as="geometry" />
        </mxCell>
        <mxCell id="iUSkBLwJn5Xz3_LzBEqI-78" style="edgeStyle=orthogonalEdgeStyle;rounded=0;orthogonalLoop=1;jettySize=auto;html=1;" edge="1" parent="iUSkBLwJn5Xz3_LzBEqI-66" source="iUSkBLwJn5Xz3_LzBEqI-79" target="iUSkBLwJn5Xz3_LzBEqI-75">
          <mxGeometry relative="1" as="geometry" />
        </mxCell>
        <mxCell id="iUSkBLwJn5Xz3_LzBEqI-79" value="purge-function" style="sketch=0;outlineConnect=0;fontColor=#232F3E;gradientColor=none;fillColor=#ED7100;strokeColor=none;dashed=0;verticalLabelPosition=bottom;verticalAlign=top;align=center;html=1;fontSize=12;fontStyle=0;aspect=fixed;pointerEvents=1;shape=mxgraph.aws4.lambda_function;" vertex="1" parent="iUSkBLwJn5Xz3_LzBEqI-66">
          <mxGeometry x="224.5" y="531" width="48" height="48" as="geometry" />
        </mxCell>
        <mxCell id="iUSkBLwJn5Xz3_LzBEqI-84" value="Regra agendara para&lt;div&gt;disparar lambda&lt;/div&gt;" style="text;html=1;align=left;verticalAlign=middle;resizable=0;points=[];autosize=1;strokeColor=none;fillColor=none;" vertex="1" parent="iUSkBLwJn5Xz3_LzBEqI-66">
          <mxGeometry x="52" y="627" width="132" height="41" as="geometry" />
        </mxCell>
        <mxCell id="iUSkBLwJn5Xz3_LzBEqI-85" value="Realiza expurgo dos dados&amp;nbsp;&lt;div&gt;do CW log group para o S3&lt;/div&gt;" style="text;html=1;align=left;verticalAlign=middle;resizable=0;points=[];autosize=1;strokeColor=none;fillColor=none;" vertex="1" parent="iUSkBLwJn5Xz3_LzBEqI-66">
          <mxGeometry x="202.5" y="627" width="167" height="41" as="geometry" />
        </mxCell>
        <mxCell id="iUSkBLwJn5Xz3_LzBEqI-86" value="Armazena os logs do CW&lt;div&gt;Realiza o expurgo dos dados de forma automática&lt;/div&gt;&lt;div&gt;através do s3 lifecycle&lt;/div&gt;" style="text;html=1;align=left;verticalAlign=middle;resizable=0;points=[];autosize=1;strokeColor=none;fillColor=none;" vertex="1" parent="iUSkBLwJn5Xz3_LzBEqI-66">
          <mxGeometry x="384.5" y="625" width="286" height="55" as="geometry" />
        </mxCell>
        <mxCell id="iUSkBLwJn5Xz3_LzBEqI-119" value="S3&lt;div&gt;(audit|mesh)&lt;/div&gt;" style="sketch=0;outlineConnect=0;fontColor=#232F3E;gradientColor=none;fillColor=#7AA116;strokeColor=none;dashed=0;verticalLabelPosition=bottom;verticalAlign=top;align=center;html=1;fontSize=12;fontStyle=0;aspect=fixed;pointerEvents=1;shape=mxgraph.aws4.bucket;" vertex="1" parent="iUSkBLwJn5Xz3_LzBEqI-66">
          <mxGeometry x="633" y="252.5" width="75" height="78" as="geometry" />
        </mxCell>
        <mxCell id="iUSkBLwJn5Xz3_LzBEqI-120" style="edgeStyle=orthogonalEdgeStyle;rounded=0;orthogonalLoop=1;jettySize=auto;html=1;" edge="1" parent="iUSkBLwJn5Xz3_LzBEqI-66" source="iUSkBLwJn5Xz3_LzBEqI-9" target="iUSkBLwJn5Xz3_LzBEqI-119">
          <mxGeometry relative="1" as="geometry" />
        </mxCell>
        <mxCell id="iUSkBLwJn5Xz3_LzBEqI-147" style="edgeStyle=orthogonalEdgeStyle;rounded=0;orthogonalLoop=1;jettySize=auto;html=1;entryX=0;entryY=0.25;entryDx=0;entryDy=0;" edge="1" parent="iUSkBLwJn5Xz3_LzBEqI-66" source="iUSkBLwJn5Xz3_LzBEqI-137" target="iUSkBLwJn5Xz3_LzBEqI-8">
          <mxGeometry relative="1" as="geometry" />
        </mxCell>
        <mxCell id="iUSkBLwJn5Xz3_LzBEqI-137" value="api gateway" style="sketch=0;points=[[0,0,0],[0.25,0,0],[0.5,0,0],[0.75,0,0],[1,0,0],[0,1,0],[0.25,1,0],[0.5,1,0],[0.75,1,0],[1,1,0],[0,0.25,0],[0,0.5,0],[0,0.75,0],[1,0.25,0],[1,0.5,0],[1,0.75,0]];outlineConnect=0;fontColor=#232F3E;fillColor=#E7157B;strokeColor=#ffffff;dashed=0;verticalLabelPosition=bottom;verticalAlign=top;align=center;html=1;fontSize=12;fontStyle=0;aspect=fixed;shape=mxgraph.aws4.resourceIcon;resIcon=mxgraph.aws4.api_gateway;" vertex="1" parent="iUSkBLwJn5Xz3_LzBEqI-66">
          <mxGeometry x="52" y="95" width="78" height="78" as="geometry" />
        </mxCell>
        <mxCell id="iUSkBLwJn5Xz3_LzBEqI-138" value="cognito" style="sketch=0;points=[[0,0,0],[0.25,0,0],[0.5,0,0],[0.75,0,0],[1,0,0],[0,1,0],[0.25,1,0],[0.5,1,0],[0.75,1,0],[1,1,0],[0,0.25,0],[0,0.5,0],[0,0.75,0],[1,0.25,0],[1,0.5,0],[1,0.75,0]];outlineConnect=0;fontColor=#232F3E;fillColor=#DD344C;strokeColor=#ffffff;dashed=0;verticalLabelPosition=bottom;verticalAlign=top;align=center;html=1;fontSize=12;fontStyle=0;aspect=fixed;shape=mxgraph.aws4.resourceIcon;resIcon=mxgraph.aws4.cognito;" vertex="1" parent="iUSkBLwJn5Xz3_LzBEqI-66">
          <mxGeometry x="64.5" y="240" width="52" height="52" as="geometry" />
        </mxCell>
        <mxCell id="iUSkBLwJn5Xz3_LzBEqI-139" value="mobile" style="verticalLabelPosition=bottom;verticalAlign=top;html=1;shadow=0;dashed=0;strokeWidth=1;shape=mxgraph.android.phone2;strokeColor=#c0c0c0;" vertex="1" parent="iUSkBLwJn5Xz3_LzBEqI-66">
          <mxGeometry x="-174.5" y="93" width="35.9" height="70" as="geometry" />
        </mxCell>
        <mxCell id="iUSkBLwJn5Xz3_LzBEqI-140" value="Validação payload&lt;div&gt;Autorização&lt;/div&gt;" style="text;html=1;align=left;verticalAlign=middle;resizable=0;points=[];autosize=1;strokeColor=none;fillColor=none;" vertex="1" parent="iUSkBLwJn5Xz3_LzBEqI-66">
          <mxGeometry x="50.5" y="41" width="116" height="41" as="geometry" />
        </mxCell>
        <mxCell id="iUSkBLwJn5Xz3_LzBEqI-141" style="edgeStyle=orthogonalEdgeStyle;rounded=0;orthogonalLoop=1;jettySize=auto;html=1;entryX=0.5;entryY=0;entryDx=0;entryDy=0;entryPerimeter=0;dashed=1;" edge="1" parent="iUSkBLwJn5Xz3_LzBEqI-66" source="iUSkBLwJn5Xz3_LzBEqI-137" target="iUSkBLwJn5Xz3_LzBEqI-138">
          <mxGeometry relative="1" as="geometry" />
        </mxCell>
        <mxCell id="iUSkBLwJn5Xz3_LzBEqI-142" value="Autenticação" style="text;html=1;align=center;verticalAlign=middle;resizable=0;points=[];autosize=1;strokeColor=none;fillColor=none;" vertex="1" parent="iUSkBLwJn5Xz3_LzBEqI-66">
          <mxGeometry x="115.5" y="237" width="87" height="26" as="geometry" />
        </mxCell>
        <mxCell id="iUSkBLwJn5Xz3_LzBEqI-143" value="" style="endArrow=classic;html=1;rounded=0;entryX=0;entryY=0.5;entryDx=0;entryDy=0;entryPerimeter=0;exitX=0.975;exitY=0.629;exitDx=0;exitDy=0;exitPerimeter=0;" edge="1" parent="iUSkBLwJn5Xz3_LzBEqI-66" source="iUSkBLwJn5Xz3_LzBEqI-139" target="iUSkBLwJn5Xz3_LzBEqI-138">
          <mxGeometry width="50" height="50" relative="1" as="geometry">
            <mxPoint x="-116.5" y="251" as="sourcePoint" />
            <mxPoint x="-66.5" y="201" as="targetPoint" />
          </mxGeometry>
        </mxCell>
        <mxCell id="iUSkBLwJn5Xz3_LzBEqI-144" value="" style="endArrow=classic;html=1;rounded=0;entryX=0;entryY=0.5;entryDx=0;entryDy=0;entryPerimeter=0;exitX=0.975;exitY=0.643;exitDx=0;exitDy=0;exitPerimeter=0;" edge="1" parent="iUSkBLwJn5Xz3_LzBEqI-66" source="iUSkBLwJn5Xz3_LzBEqI-139" target="iUSkBLwJn5Xz3_LzBEqI-137">
          <mxGeometry width="50" height="50" relative="1" as="geometry">
            <mxPoint x="-131.5" y="309" as="sourcePoint" />
            <mxPoint x="-81.5" y="259" as="targetPoint" />
          </mxGeometry>
        </mxCell>
        <mxCell id="iUSkBLwJn5Xz3_LzBEqI-145" value="1" style="text;html=1;align=center;verticalAlign=middle;resizable=0;points=[];autosize=1;strokeColor=#d79b00;fillColor=#ffe6cc;rounded=1;" vertex="1" parent="iUSkBLwJn5Xz3_LzBEqI-66">
          <mxGeometry x="-112.5" y="171" width="25" height="26" as="geometry" />
        </mxCell>
        <mxCell id="iUSkBLwJn5Xz3_LzBEqI-146" value="2" style="text;html=1;align=center;verticalAlign=middle;resizable=0;points=[];autosize=1;strokeColor=#d79b00;fillColor=#ffe6cc;rounded=1;" vertex="1" parent="iUSkBLwJn5Xz3_LzBEqI-66">
          <mxGeometry x="-99.5" y="102" width="25" height="26" as="geometry" />
        </mxCell>
        <mxCell id="iUSkBLwJn5Xz3_LzBEqI-127" style="edgeStyle=orthogonalEdgeStyle;rounded=0;orthogonalLoop=1;jettySize=auto;html=1;" edge="1" parent="jS3d8H57Off99weg46n1-1" source="iUSkBLwJn5Xz3_LzBEqI-71" target="iUSkBLwJn5Xz3_LzBEqI-122">
          <mxGeometry relative="1" as="geometry" />
        </mxCell>
        <mxCell id="iUSkBLwJn5Xz3_LzBEqI-71" value="api gateway" style="sketch=0;points=[[0,0,0],[0.25,0,0],[0.5,0,0],[0.75,0,0],[1,0,0],[0,1,0],[0.25,1,0],[0.5,1,0],[0.75,1,0],[1,1,0],[0,0.25,0],[0,0.5,0],[0,0.75,0],[1,0.25,0],[1,0.5,0],[1,0.75,0]];outlineConnect=0;fontColor=#232F3E;fillColor=#E7157B;strokeColor=#ffffff;dashed=0;verticalLabelPosition=bottom;verticalAlign=top;align=center;html=1;fontSize=12;fontStyle=0;aspect=fixed;shape=mxgraph.aws4.resourceIcon;resIcon=mxgraph.aws4.api_gateway;" vertex="1" parent="jS3d8H57Off99weg46n1-1">
          <mxGeometry x="639" y="2671.5" width="78" height="78" as="geometry" />
        </mxCell>
        <mxCell id="iUSkBLwJn5Xz3_LzBEqI-72" value="cognito" style="sketch=0;points=[[0,0,0],[0.25,0,0],[0.5,0,0],[0.75,0,0],[1,0,0],[0,1,0],[0.25,1,0],[0.5,1,0],[0.75,1,0],[1,1,0],[0,0.25,0],[0,0.5,0],[0,0.75,0],[1,0.25,0],[1,0.5,0],[1,0.75,0]];outlineConnect=0;fontColor=#232F3E;fillColor=#DD344C;strokeColor=#ffffff;dashed=0;verticalLabelPosition=bottom;verticalAlign=top;align=center;html=1;fontSize=12;fontStyle=0;aspect=fixed;shape=mxgraph.aws4.resourceIcon;resIcon=mxgraph.aws4.cognito;" vertex="1" parent="jS3d8H57Off99weg46n1-1">
          <mxGeometry x="652" y="2818.5" width="52" height="52" as="geometry" />
        </mxCell>
        <mxCell id="iUSkBLwJn5Xz3_LzBEqI-77" value="mobile" style="verticalLabelPosition=bottom;verticalAlign=top;html=1;shadow=0;dashed=0;strokeWidth=1;shape=mxgraph.android.phone2;strokeColor=#c0c0c0;" vertex="1" parent="jS3d8H57Off99weg46n1-1">
          <mxGeometry x="414" y="2671.5" width="35.9" height="70" as="geometry" />
        </mxCell>
        <mxCell id="iUSkBLwJn5Xz3_LzBEqI-80" value="Validação payload&lt;div&gt;Autorização&lt;/div&gt;" style="text;html=1;align=left;verticalAlign=middle;resizable=0;points=[];autosize=1;strokeColor=none;fillColor=none;" vertex="1" parent="jS3d8H57Off99weg46n1-1">
          <mxGeometry x="639" y="2619.5" width="116" height="41" as="geometry" />
        </mxCell>
        <mxCell id="iUSkBLwJn5Xz3_LzBEqI-81" style="edgeStyle=orthogonalEdgeStyle;rounded=0;orthogonalLoop=1;jettySize=auto;html=1;entryX=0.5;entryY=0;entryDx=0;entryDy=0;entryPerimeter=0;dashed=1;" edge="1" parent="jS3d8H57Off99weg46n1-1" source="iUSkBLwJn5Xz3_LzBEqI-71" target="iUSkBLwJn5Xz3_LzBEqI-72">
          <mxGeometry relative="1" as="geometry" />
        </mxCell>
        <mxCell id="iUSkBLwJn5Xz3_LzBEqI-87" value="" style="endArrow=classic;html=1;rounded=0;entryX=0;entryY=0.5;entryDx=0;entryDy=0;entryPerimeter=0;exitX=0.975;exitY=0.629;exitDx=0;exitDy=0;exitPerimeter=0;" edge="1" parent="jS3d8H57Off99weg46n1-1" source="iUSkBLwJn5Xz3_LzBEqI-77" target="iUSkBLwJn5Xz3_LzBEqI-72">
          <mxGeometry width="50" height="50" relative="1" as="geometry">
            <mxPoint x="472" y="2829.5" as="sourcePoint" />
            <mxPoint x="522" y="2779.5" as="targetPoint" />
          </mxGeometry>
        </mxCell>
        <mxCell id="iUSkBLwJn5Xz3_LzBEqI-88" value="" style="endArrow=classic;html=1;rounded=0;entryX=0;entryY=0.5;entryDx=0;entryDy=0;entryPerimeter=0;exitX=0.975;exitY=0.643;exitDx=0;exitDy=0;exitPerimeter=0;" edge="1" parent="jS3d8H57Off99weg46n1-1" source="iUSkBLwJn5Xz3_LzBEqI-77" target="iUSkBLwJn5Xz3_LzBEqI-71">
          <mxGeometry width="50" height="50" relative="1" as="geometry">
            <mxPoint x="457" y="2887.5" as="sourcePoint" />
            <mxPoint x="507" y="2837.5" as="targetPoint" />
          </mxGeometry>
        </mxCell>
        <mxCell id="iUSkBLwJn5Xz3_LzBEqI-89" value="1" style="text;html=1;align=center;verticalAlign=middle;resizable=0;points=[];autosize=1;strokeColor=#d79b00;fillColor=#ffe6cc;rounded=1;" vertex="1" parent="jS3d8H57Off99weg46n1-1">
          <mxGeometry x="436" y="2627" width="25" height="26" as="geometry" />
        </mxCell>
        <mxCell id="iUSkBLwJn5Xz3_LzBEqI-90" value="2" style="text;html=1;align=center;verticalAlign=middle;resizable=0;points=[];autosize=1;strokeColor=#d79b00;fillColor=#ffe6cc;rounded=1;" vertex="1" parent="jS3d8H57Off99weg46n1-1">
          <mxGeometry x="475.9" y="2749.5" width="25" height="26" as="geometry" />
        </mxCell>
        <mxCell id="iUSkBLwJn5Xz3_LzBEqI-124" style="edgeStyle=orthogonalEdgeStyle;rounded=0;orthogonalLoop=1;jettySize=auto;html=1;" edge="1" parent="jS3d8H57Off99weg46n1-1" source="iUSkBLwJn5Xz3_LzBEqI-121" target="iUSkBLwJn5Xz3_LzBEqI-123">
          <mxGeometry relative="1" as="geometry" />
        </mxCell>
        <mxCell id="iUSkBLwJn5Xz3_LzBEqI-121" value="cloudfront&lt;div&gt;(CDN)&lt;/div&gt;" style="sketch=0;points=[[0,0,0],[0.25,0,0],[0.5,0,0],[0.75,0,0],[1,0,0],[0,1,0],[0.25,1,0],[0.5,1,0],[0.75,1,0],[1,1,0],[0,0.25,0],[0,0.5,0],[0,0.75,0],[1,0.25,0],[1,0.5,0],[1,0.75,0]];outlineConnect=0;fontColor=#232F3E;fillColor=#8C4FFF;strokeColor=#ffffff;dashed=0;verticalLabelPosition=bottom;verticalAlign=top;align=center;html=1;fontSize=12;fontStyle=0;aspect=fixed;shape=mxgraph.aws4.resourceIcon;resIcon=mxgraph.aws4.cloudfront;" vertex="1" parent="jS3d8H57Off99weg46n1-1">
          <mxGeometry x="636" y="2459.5" width="78" height="78" as="geometry" />
        </mxCell>
        <mxCell id="iUSkBLwJn5Xz3_LzBEqI-136" style="edgeStyle=orthogonalEdgeStyle;rounded=0;orthogonalLoop=1;jettySize=auto;html=1;" edge="1" parent="jS3d8H57Off99weg46n1-1" source="iUSkBLwJn5Xz3_LzBEqI-122" target="iUSkBLwJn5Xz3_LzBEqI-131">
          <mxGeometry relative="1" as="geometry" />
        </mxCell>
        <mxCell id="iUSkBLwJn5Xz3_LzBEqI-122" value="BFF" style="sketch=0;outlineConnect=0;fontColor=#232F3E;gradientColor=none;fillColor=#ED7100;strokeColor=none;dashed=0;verticalLabelPosition=bottom;verticalAlign=top;align=center;html=1;fontSize=12;fontStyle=0;aspect=fixed;pointerEvents=1;shape=mxgraph.aws4.container_2;" vertex="1" parent="jS3d8H57Off99weg46n1-1">
          <mxGeometry x="827.5" y="2695" width="48" height="31" as="geometry" />
        </mxCell>
        <mxCell id="iUSkBLwJn5Xz3_LzBEqI-123" value="S3&lt;div&gt;(SPA, static files)&lt;/div&gt;" style="sketch=0;outlineConnect=0;fontColor=#232F3E;gradientColor=none;fillColor=#7AA116;strokeColor=none;dashed=0;verticalLabelPosition=bottom;verticalAlign=top;align=center;html=1;fontSize=12;fontStyle=0;aspect=fixed;pointerEvents=1;shape=mxgraph.aws4.bucket;" vertex="1" parent="jS3d8H57Off99weg46n1-1">
          <mxGeometry x="806" y="2459.5" width="75" height="78" as="geometry" />
        </mxCell>
        <mxCell id="iUSkBLwJn5Xz3_LzBEqI-125" style="edgeStyle=orthogonalEdgeStyle;rounded=0;orthogonalLoop=1;jettySize=auto;html=1;entryX=0;entryY=0.5;entryDx=0;entryDy=0;entryPerimeter=0;" edge="1" parent="jS3d8H57Off99weg46n1-1" source="iUSkBLwJn5Xz3_LzBEqI-77" target="iUSkBLwJn5Xz3_LzBEqI-121">
          <mxGeometry relative="1" as="geometry">
            <Array as="points">
              <mxPoint x="432" y="2498.5" />
            </Array>
          </mxGeometry>
        </mxCell>
        <mxCell id="iUSkBLwJn5Xz3_LzBEqI-126" value="3" style="text;html=1;align=center;verticalAlign=middle;resizable=0;points=[];autosize=1;strokeColor=#d79b00;fillColor=#ffe6cc;rounded=1;" vertex="1" parent="jS3d8H57Off99weg46n1-1">
          <mxGeometry x="513" y="2677.5" width="30" height="30" as="geometry" />
        </mxCell>
        <mxCell id="iUSkBLwJn5Xz3_LzBEqI-128" value="Conta Corrente" style="points=[[0,0],[0.25,0],[0.5,0],[0.75,0],[1,0],[1,0.25],[1,0.5],[1,0.75],[1,1],[0.75,1],[0.5,1],[0.25,1],[0,1],[0,0.75],[0,0.5],[0,0.25]];outlineConnect=0;gradientColor=none;html=1;whiteSpace=wrap;fontSize=12;fontStyle=0;container=1;pointerEvents=0;collapsible=0;recursiveResize=0;shape=mxgraph.aws4.group;grIcon=mxgraph.aws4.group_aws_cloud;strokeColor=#232F3E;fillColor=none;verticalAlign=top;align=left;spacingLeft=30;fontColor=#232F3E;dashed=0;" vertex="1" parent="jS3d8H57Off99weg46n1-1">
          <mxGeometry x="976" y="2430" width="160" height="509.5" as="geometry" />
        </mxCell>
        <mxCell id="iUSkBLwJn5Xz3_LzBEqI-131" value="api gateway PIX" style="sketch=0;points=[[0,0,0],[0.25,0,0],[0.5,0,0],[0.75,0,0],[1,0,0],[0,1,0],[0.25,1,0],[0.5,1,0],[0.75,1,0],[1,1,0],[0,0.25,0],[0,0.5,0],[0,0.75,0],[1,0.25,0],[1,0.5,0],[1,0.75,0]];outlineConnect=0;fontColor=#232F3E;fillColor=#E7157B;strokeColor=#ffffff;dashed=0;verticalLabelPosition=bottom;verticalAlign=top;align=center;html=1;fontSize=12;fontStyle=0;aspect=fixed;shape=mxgraph.aws4.resourceIcon;resIcon=mxgraph.aws4.api_gateway;" vertex="1" parent="iUSkBLwJn5Xz3_LzBEqI-128">
          <mxGeometry x="35" y="241.5" width="78" height="78" as="geometry" />
        </mxCell>
      </root>
    </mxGraphModel>
  </diagram>
</mxfile>
